<mxfile host="Electron" modified="2024-05-02T00:34:07.863Z" agent="Mozilla/5.0 (Windows NT 10.0; Win64; x64) AppleWebKit/537.36 (KHTML, like Gecko) draw.io/24.2.5 Chrome/120.0.6099.109 Electron/28.1.0 Safari/537.36" etag="JiXkzeEY4yDBDfFJ5wKK" version="24.2.5" type="device">
  <diagram name="Page-1" id="LFm00xABk3EBRk41Cjgw">
    <mxGraphModel dx="2085" dy="1831" grid="1" gridSize="10" guides="1" tooltips="1" connect="1" arrows="1" fold="1" page="1" pageScale="1" pageWidth="850" pageHeight="1100" math="0" shadow="0">
      <root>
        <mxCell id="0" />
        <mxCell id="1" parent="0" />
        <mxCell id="CsfTkJ6YKDBlbb89xoRV-1" value="Sales Office" style="rounded=0;whiteSpace=wrap;html=1;" parent="1" vertex="1">
          <mxGeometry x="-20" y="50" width="120" height="60" as="geometry" />
        </mxCell>
        <mxCell id="CsfTkJ6YKDBlbb89xoRV-2" value="Owners" style="rounded=0;whiteSpace=wrap;html=1;" parent="1" vertex="1">
          <mxGeometry x="640" y="50" width="120" height="60" as="geometry" />
        </mxCell>
        <mxCell id="CsfTkJ6YKDBlbb89xoRV-3" value="Empolyee" style="rounded=0;whiteSpace=wrap;html=1;" parent="1" vertex="1">
          <mxGeometry x="-20" y="520" width="120" height="60" as="geometry" />
        </mxCell>
        <mxCell id="CsfTkJ6YKDBlbb89xoRV-4" value="&lt;span style=&quot;font-size:14.0pt;font-family:&amp;quot;Arial&amp;quot;,sans-serif;&lt;br/&gt;mso-fareast-font-family:Arial;position:relative;top:.5pt;mso-text-raise:-.5pt;&lt;br/&gt;mso-ansi-language:EN-US;mso-fareast-language:EN-US;mso-bidi-language:AR-EG&quot;&gt;property&amp;nbsp;&lt;/span&gt;" style="rounded=0;whiteSpace=wrap;html=1;" parent="1" vertex="1">
          <mxGeometry x="610" y="420" width="120" height="60" as="geometry" />
        </mxCell>
        <mxCell id="CsfTkJ6YKDBlbb89xoRV-7" value="Office_Number" style="ellipse;whiteSpace=wrap;html=1;align=center;fontStyle=4;" parent="1" vertex="1">
          <mxGeometry x="-80" y="-10" width="100" height="40" as="geometry" />
        </mxCell>
        <mxCell id="CsfTkJ6YKDBlbb89xoRV-8" value="Emp_ID" style="ellipse;whiteSpace=wrap;html=1;align=center;fontStyle=4;" parent="1" vertex="1">
          <mxGeometry x="-180" y="530" width="100" height="40" as="geometry" />
        </mxCell>
        <mxCell id="CsfTkJ6YKDBlbb89xoRV-9" value="Emp_Name" style="ellipse;whiteSpace=wrap;html=1;align=center;" parent="1" vertex="1">
          <mxGeometry x="-170" y="478" width="100" height="40" as="geometry" />
        </mxCell>
        <mxCell id="CsfTkJ6YKDBlbb89xoRV-11" value="Location" style="ellipse;shape=doubleEllipse;margin=3;whiteSpace=wrap;html=1;align=center;" parent="1" vertex="1">
          <mxGeometry x="40" y="-10" width="100" height="40" as="geometry" />
        </mxCell>
        <mxCell id="CsfTkJ6YKDBlbb89xoRV-17" value="" style="endArrow=none;html=1;rounded=0;entryX=0.604;entryY=1.07;entryDx=0;entryDy=0;entryPerimeter=0;exitX=0.25;exitY=0;exitDx=0;exitDy=0;" parent="1" source="CsfTkJ6YKDBlbb89xoRV-1" target="CsfTkJ6YKDBlbb89xoRV-7" edge="1">
          <mxGeometry width="50" height="50" relative="1" as="geometry">
            <mxPoint y="50" as="sourcePoint" />
            <mxPoint x="150" y="110" as="targetPoint" />
          </mxGeometry>
        </mxCell>
        <mxCell id="CsfTkJ6YKDBlbb89xoRV-18" value="" style="endArrow=none;html=1;rounded=0;entryX=0.5;entryY=1;entryDx=0;entryDy=0;exitX=0.5;exitY=0;exitDx=0;exitDy=0;" parent="1" source="CsfTkJ6YKDBlbb89xoRV-1" target="CsfTkJ6YKDBlbb89xoRV-11" edge="1">
          <mxGeometry width="50" height="50" relative="1" as="geometry">
            <mxPoint x="20" y="60" as="sourcePoint" />
            <mxPoint x="-10" y="43" as="targetPoint" />
          </mxGeometry>
        </mxCell>
        <mxCell id="CsfTkJ6YKDBlbb89xoRV-20" value="" style="endArrow=none;html=1;rounded=0;entryX=1;entryY=1;entryDx=0;entryDy=0;exitX=0.187;exitY=-0.013;exitDx=0;exitDy=0;exitPerimeter=0;" parent="1" source="CsfTkJ6YKDBlbb89xoRV-3" target="CsfTkJ6YKDBlbb89xoRV-9" edge="1">
          <mxGeometry width="50" height="50" relative="1" as="geometry">
            <mxPoint x="100" y="560" as="sourcePoint" />
            <mxPoint x="150" y="510" as="targetPoint" />
          </mxGeometry>
        </mxCell>
        <mxCell id="CsfTkJ6YKDBlbb89xoRV-21" value="" style="endArrow=none;html=1;rounded=0;entryX=1;entryY=0.5;entryDx=0;entryDy=0;exitX=0;exitY=0.5;exitDx=0;exitDy=0;" parent="1" source="CsfTkJ6YKDBlbb89xoRV-3" target="CsfTkJ6YKDBlbb89xoRV-8" edge="1">
          <mxGeometry width="50" height="50" relative="1" as="geometry">
            <mxPoint x="100" y="560" as="sourcePoint" />
            <mxPoint x="150" y="510" as="targetPoint" />
          </mxGeometry>
        </mxCell>
        <mxCell id="CsfTkJ6YKDBlbb89xoRV-22" value="Work" style="rhombus;whiteSpace=wrap;html=1;" parent="1" vertex="1">
          <mxGeometry y="240" width="80" height="80" as="geometry" />
        </mxCell>
        <mxCell id="CsfTkJ6YKDBlbb89xoRV-23" value="" style="endArrow=none;html=1;rounded=0;entryX=0.5;entryY=0;entryDx=0;entryDy=0;exitX=0.5;exitY=1;exitDx=0;exitDy=0;" parent="1" source="CsfTkJ6YKDBlbb89xoRV-1" target="CsfTkJ6YKDBlbb89xoRV-22" edge="1">
          <mxGeometry width="50" height="50" relative="1" as="geometry">
            <mxPoint x="100" y="360" as="sourcePoint" />
            <mxPoint x="150" y="310" as="targetPoint" />
          </mxGeometry>
        </mxCell>
        <mxCell id="CsfTkJ6YKDBlbb89xoRV-24" value="" style="endArrow=none;html=1;rounded=0;entryX=0.5;entryY=1;entryDx=0;entryDy=0;exitX=0.5;exitY=0;exitDx=0;exitDy=0;" parent="1" source="CsfTkJ6YKDBlbb89xoRV-3" target="CsfTkJ6YKDBlbb89xoRV-22" edge="1">
          <mxGeometry width="50" height="50" relative="1" as="geometry">
            <mxPoint x="50" y="120" as="sourcePoint" />
            <mxPoint x="50" y="250" as="targetPoint" />
          </mxGeometry>
        </mxCell>
        <mxCell id="CsfTkJ6YKDBlbb89xoRV-25" value="" style="endArrow=none;html=1;rounded=0;entryX=0.632;entryY=0.174;entryDx=0;entryDy=0;exitX=0.611;exitY=0.999;exitDx=0;exitDy=0;exitPerimeter=0;entryPerimeter=0;" parent="1" source="CsfTkJ6YKDBlbb89xoRV-1" target="CsfTkJ6YKDBlbb89xoRV-22" edge="1">
          <mxGeometry width="50" height="50" relative="1" as="geometry">
            <mxPoint x="100" y="360" as="sourcePoint" />
            <mxPoint x="150" y="310" as="targetPoint" />
          </mxGeometry>
        </mxCell>
        <mxCell id="CsfTkJ6YKDBlbb89xoRV-26" value="1" style="text;html=1;align=center;verticalAlign=middle;whiteSpace=wrap;rounded=0;" parent="1" vertex="1">
          <mxGeometry x="-10" y="110" width="60" height="30" as="geometry" />
        </mxCell>
        <mxCell id="CsfTkJ6YKDBlbb89xoRV-28" value="M" style="text;html=1;align=center;verticalAlign=middle;resizable=0;points=[];autosize=1;strokeColor=none;fillColor=none;" parent="1" vertex="1">
          <mxGeometry x="15" y="488" width="30" height="30" as="geometry" />
        </mxCell>
        <mxCell id="CsfTkJ6YKDBlbb89xoRV-29" value="Mange" style="rhombus;whiteSpace=wrap;html=1;" parent="1" vertex="1">
          <mxGeometry x="-90" y="240" width="80" height="80" as="geometry" />
        </mxCell>
        <mxCell id="CsfTkJ6YKDBlbb89xoRV-30" value="" style="endArrow=none;html=1;rounded=0;entryX=0.5;entryY=0;entryDx=0;entryDy=0;exitX=0;exitY=1;exitDx=0;exitDy=0;" parent="1" source="CsfTkJ6YKDBlbb89xoRV-1" target="CsfTkJ6YKDBlbb89xoRV-29" edge="1">
          <mxGeometry width="50" height="50" relative="1" as="geometry">
            <mxPoint x="100" y="360" as="sourcePoint" />
            <mxPoint x="150" y="310" as="targetPoint" />
          </mxGeometry>
        </mxCell>
        <mxCell id="CsfTkJ6YKDBlbb89xoRV-31" value="" style="endArrow=none;html=1;rounded=0;entryX=0.5;entryY=1;entryDx=0;entryDy=0;exitX=0.25;exitY=0;exitDx=0;exitDy=0;" parent="1" source="CsfTkJ6YKDBlbb89xoRV-3" target="CsfTkJ6YKDBlbb89xoRV-29" edge="1">
          <mxGeometry width="50" height="50" relative="1" as="geometry">
            <mxPoint x="100" y="360" as="sourcePoint" />
            <mxPoint x="150" y="310" as="targetPoint" />
          </mxGeometry>
        </mxCell>
        <mxCell id="CsfTkJ6YKDBlbb89xoRV-32" value="1" style="text;html=1;align=center;verticalAlign=middle;whiteSpace=wrap;rounded=0;" parent="1" vertex="1">
          <mxGeometry x="-70" y="110" width="60" height="30" as="geometry" />
        </mxCell>
        <mxCell id="CsfTkJ6YKDBlbb89xoRV-33" value="1" style="text;html=1;align=center;verticalAlign=middle;resizable=0;points=[];autosize=1;strokeColor=none;fillColor=none;" parent="1" vertex="1">
          <mxGeometry x="-45" y="490" width="30" height="30" as="geometry" />
        </mxCell>
        <mxCell id="CsfTkJ6YKDBlbb89xoRV-34" value="City" style="ellipse;whiteSpace=wrap;html=1;align=center;" parent="1" vertex="1">
          <mxGeometry x="520" y="590" width="100" height="40" as="geometry" />
        </mxCell>
        <mxCell id="CsfTkJ6YKDBlbb89xoRV-35" value="Prop_ID" style="ellipse;whiteSpace=wrap;html=1;align=center;fontStyle=4;" parent="1" vertex="1">
          <mxGeometry x="770" y="430" width="100" height="40" as="geometry" />
        </mxCell>
        <mxCell id="CsfTkJ6YKDBlbb89xoRV-36" value="Location" style="ellipse;shape=doubleEllipse;margin=3;whiteSpace=wrap;html=1;align=center;" parent="1" vertex="1">
          <mxGeometry x="630" y="500" width="100" height="40" as="geometry" />
        </mxCell>
        <mxCell id="CsfTkJ6YKDBlbb89xoRV-37" value="State" style="ellipse;whiteSpace=wrap;html=1;align=center;" parent="1" vertex="1">
          <mxGeometry x="630" y="590" width="100" height="40" as="geometry" />
        </mxCell>
        <mxCell id="CsfTkJ6YKDBlbb89xoRV-39" value="ZipCode" style="ellipse;whiteSpace=wrap;html=1;align=center;" parent="1" vertex="1">
          <mxGeometry x="740" y="590" width="100" height="40" as="geometry" />
        </mxCell>
        <mxCell id="CsfTkJ6YKDBlbb89xoRV-40" value="" style="endArrow=none;html=1;rounded=0;entryX=0.71;entryY=0.075;entryDx=0;entryDy=0;exitX=0;exitY=1;exitDx=0;exitDy=0;entryPerimeter=0;" parent="1" source="CsfTkJ6YKDBlbb89xoRV-36" target="CsfTkJ6YKDBlbb89xoRV-34" edge="1">
          <mxGeometry width="50" height="50" relative="1" as="geometry">
            <mxPoint x="630" y="430" as="sourcePoint" />
            <mxPoint x="680" y="380" as="targetPoint" />
          </mxGeometry>
        </mxCell>
        <mxCell id="CsfTkJ6YKDBlbb89xoRV-41" value="" style="endArrow=none;html=1;rounded=0;entryX=0.393;entryY=0.017;entryDx=0;entryDy=0;exitX=1;exitY=1;exitDx=0;exitDy=0;entryPerimeter=0;" parent="1" source="CsfTkJ6YKDBlbb89xoRV-36" target="CsfTkJ6YKDBlbb89xoRV-39" edge="1">
          <mxGeometry width="50" height="50" relative="1" as="geometry">
            <mxPoint x="590" y="383" as="sourcePoint" />
            <mxPoint x="570" y="350" as="targetPoint" />
          </mxGeometry>
        </mxCell>
        <mxCell id="CsfTkJ6YKDBlbb89xoRV-42" value="" style="endArrow=none;html=1;rounded=0;entryX=0.5;entryY=0;entryDx=0;entryDy=0;exitX=0.5;exitY=1;exitDx=0;exitDy=0;" parent="1" source="CsfTkJ6YKDBlbb89xoRV-36" target="CsfTkJ6YKDBlbb89xoRV-37" edge="1">
          <mxGeometry width="50" height="50" relative="1" as="geometry">
            <mxPoint x="590" y="370" as="sourcePoint" />
            <mxPoint x="580" y="360" as="targetPoint" />
          </mxGeometry>
        </mxCell>
        <mxCell id="CsfTkJ6YKDBlbb89xoRV-43" value="" style="endArrow=none;html=1;rounded=0;exitX=0.016;exitY=0.69;exitDx=0;exitDy=0;entryX=1;entryY=0.75;entryDx=0;entryDy=0;exitPerimeter=0;" parent="1" source="CsfTkJ6YKDBlbb89xoRV-35" target="CsfTkJ6YKDBlbb89xoRV-4" edge="1">
          <mxGeometry width="50" height="50" relative="1" as="geometry">
            <mxPoint x="630" y="430" as="sourcePoint" />
            <mxPoint x="680" y="380" as="targetPoint" />
          </mxGeometry>
        </mxCell>
        <mxCell id="CsfTkJ6YKDBlbb89xoRV-51" value="" style="endArrow=none;html=1;rounded=0;entryX=0.5;entryY=0;entryDx=0;entryDy=0;exitX=0.5;exitY=1;exitDx=0;exitDy=0;" parent="1" source="CsfTkJ6YKDBlbb89xoRV-4" target="CsfTkJ6YKDBlbb89xoRV-36" edge="1">
          <mxGeometry width="50" height="50" relative="1" as="geometry">
            <mxPoint x="530" y="370" as="sourcePoint" />
            <mxPoint x="580" y="320" as="targetPoint" />
          </mxGeometry>
        </mxCell>
        <mxCell id="CsfTkJ6YKDBlbb89xoRV-54" value="Address" style="ellipse;whiteSpace=wrap;html=1;align=center;" parent="1" vertex="1">
          <mxGeometry x="400" y="580" width="100" height="40" as="geometry" />
        </mxCell>
        <mxCell id="CsfTkJ6YKDBlbb89xoRV-55" value="" style="endArrow=none;html=1;rounded=0;exitX=1;exitY=0.5;exitDx=0;exitDy=0;entryX=0;entryY=0.5;entryDx=0;entryDy=0;" parent="1" source="CsfTkJ6YKDBlbb89xoRV-54" target="CsfTkJ6YKDBlbb89xoRV-36" edge="1">
          <mxGeometry width="50" height="50" relative="1" as="geometry">
            <mxPoint x="530" y="370" as="sourcePoint" />
            <mxPoint x="580" y="320" as="targetPoint" />
          </mxGeometry>
        </mxCell>
        <mxCell id="CsfTkJ6YKDBlbb89xoRV-56" value="Be Listed" style="rhombus;whiteSpace=wrap;html=1;" parent="1" vertex="1">
          <mxGeometry x="300" y="260" width="80" height="80" as="geometry" />
        </mxCell>
        <mxCell id="CsfTkJ6YKDBlbb89xoRV-57" value="" style="endArrow=none;html=1;rounded=0;entryX=0;entryY=0;entryDx=0;entryDy=0;exitX=0.5;exitY=1;exitDx=0;exitDy=0;" parent="1" source="CsfTkJ6YKDBlbb89xoRV-56" target="CsfTkJ6YKDBlbb89xoRV-4" edge="1">
          <mxGeometry width="50" height="50" relative="1" as="geometry">
            <mxPoint x="730" y="470" as="sourcePoint" />
            <mxPoint x="780" y="420" as="targetPoint" />
          </mxGeometry>
        </mxCell>
        <mxCell id="CsfTkJ6YKDBlbb89xoRV-58" value="" style="endArrow=none;html=1;rounded=0;entryX=0.5;entryY=0;entryDx=0;entryDy=0;exitX=1;exitY=0.75;exitDx=0;exitDy=0;" parent="1" source="CsfTkJ6YKDBlbb89xoRV-1" target="CsfTkJ6YKDBlbb89xoRV-56" edge="1">
          <mxGeometry width="50" height="50" relative="1" as="geometry">
            <mxPoint x="730" y="470" as="sourcePoint" />
            <mxPoint x="780" y="420" as="targetPoint" />
          </mxGeometry>
        </mxCell>
        <mxCell id="CsfTkJ6YKDBlbb89xoRV-59" value="" style="endArrow=none;html=1;rounded=0;entryX=1;entryY=1;entryDx=0;entryDy=0;exitX=0.397;exitY=-0.038;exitDx=0;exitDy=0;exitPerimeter=0;" parent="1" source="CsfTkJ6YKDBlbb89xoRV-4" target="CsfTkJ6YKDBlbb89xoRV-56" edge="1">
          <mxGeometry width="50" height="50" relative="1" as="geometry">
            <mxPoint x="730" y="470" as="sourcePoint" />
            <mxPoint x="780" y="420" as="targetPoint" />
          </mxGeometry>
        </mxCell>
        <mxCell id="CsfTkJ6YKDBlbb89xoRV-60" value="1" style="text;html=1;align=center;verticalAlign=middle;resizable=0;points=[];autosize=1;strokeColor=none;fillColor=none;" parent="1" vertex="1">
          <mxGeometry x="75" y="108" width="30" height="30" as="geometry" />
        </mxCell>
        <mxCell id="CsfTkJ6YKDBlbb89xoRV-61" value="M" style="text;html=1;align=center;verticalAlign=middle;resizable=0;points=[];autosize=1;strokeColor=none;fillColor=none;" parent="1" vertex="1">
          <mxGeometry x="575" y="418" width="30" height="30" as="geometry" />
        </mxCell>
        <mxCell id="CsfTkJ6YKDBlbb89xoRV-62" value="Owner" style="ellipse;whiteSpace=wrap;html=1;align=center;fontStyle=4;" parent="1" vertex="1">
          <mxGeometry x="595" y="-10" width="100" height="40" as="geometry" />
        </mxCell>
        <mxCell id="CsfTkJ6YKDBlbb89xoRV-63" value="OwnerName" style="ellipse;whiteSpace=wrap;html=1;align=center;" parent="1" vertex="1">
          <mxGeometry x="695" y="-10" width="100" height="40" as="geometry" />
        </mxCell>
        <mxCell id="CsfTkJ6YKDBlbb89xoRV-67" value="Own" style="rhombus;whiteSpace=wrap;html=1;" parent="1" vertex="1">
          <mxGeometry x="660" y="180" width="80" height="80" as="geometry" />
        </mxCell>
        <mxCell id="CsfTkJ6YKDBlbb89xoRV-69" value="" style="endArrow=none;html=1;rounded=0;entryX=0.5;entryY=0;entryDx=0;entryDy=0;exitX=0.5;exitY=1;exitDx=0;exitDy=0;" parent="1" source="CsfTkJ6YKDBlbb89xoRV-2" target="CsfTkJ6YKDBlbb89xoRV-67" edge="1">
          <mxGeometry width="50" height="50" relative="1" as="geometry">
            <mxPoint x="600" y="20" as="sourcePoint" />
            <mxPoint x="650" y="-30" as="targetPoint" />
          </mxGeometry>
        </mxCell>
        <mxCell id="CsfTkJ6YKDBlbb89xoRV-70" value="" style="endArrow=none;html=1;rounded=0;entryX=0.75;entryY=0;entryDx=0;entryDy=0;exitX=0.5;exitY=1;exitDx=0;exitDy=0;" parent="1" source="CsfTkJ6YKDBlbb89xoRV-67" target="CsfTkJ6YKDBlbb89xoRV-4" edge="1">
          <mxGeometry width="50" height="50" relative="1" as="geometry">
            <mxPoint x="710" y="290" as="sourcePoint" />
            <mxPoint x="700" y="330" as="targetPoint" />
          </mxGeometry>
        </mxCell>
        <mxCell id="CsfTkJ6YKDBlbb89xoRV-71" value="System Percentage" style="ellipse;whiteSpace=wrap;html=1;align=center;" parent="1" vertex="1">
          <mxGeometry x="780" y="200" width="100" height="40" as="geometry" />
        </mxCell>
        <mxCell id="CsfTkJ6YKDBlbb89xoRV-72" value="" style="endArrow=none;html=1;rounded=0;entryX=0.25;entryY=0;entryDx=0;entryDy=0;exitX=0.5;exitY=1;exitDx=0;exitDy=0;" parent="1" source="CsfTkJ6YKDBlbb89xoRV-62" target="CsfTkJ6YKDBlbb89xoRV-2" edge="1">
          <mxGeometry width="50" height="50" relative="1" as="geometry">
            <mxPoint x="640" y="30" as="sourcePoint" />
            <mxPoint x="650" y="-30" as="targetPoint" />
          </mxGeometry>
        </mxCell>
        <mxCell id="CsfTkJ6YKDBlbb89xoRV-73" value="" style="endArrow=none;html=1;rounded=0;entryX=0.75;entryY=0;entryDx=0;entryDy=0;exitX=0.68;exitY=0.951;exitDx=0;exitDy=0;exitPerimeter=0;" parent="1" source="CsfTkJ6YKDBlbb89xoRV-63" target="CsfTkJ6YKDBlbb89xoRV-2" edge="1">
          <mxGeometry width="50" height="50" relative="1" as="geometry">
            <mxPoint x="750" y="30" as="sourcePoint" />
            <mxPoint x="650" y="-30" as="targetPoint" />
          </mxGeometry>
        </mxCell>
        <mxCell id="CsfTkJ6YKDBlbb89xoRV-74" value="" style="endArrow=none;html=1;rounded=0;entryX=0;entryY=0.5;entryDx=0;entryDy=0;exitX=1;exitY=0.5;exitDx=0;exitDy=0;" parent="1" source="CsfTkJ6YKDBlbb89xoRV-67" target="CsfTkJ6YKDBlbb89xoRV-71" edge="1">
          <mxGeometry width="50" height="50" relative="1" as="geometry">
            <mxPoint x="600" y="20" as="sourcePoint" />
            <mxPoint x="650" y="-30" as="targetPoint" />
          </mxGeometry>
        </mxCell>
        <mxCell id="CsfTkJ6YKDBlbb89xoRV-76" value="M" style="text;html=1;align=center;verticalAlign=middle;resizable=0;points=[];autosize=1;strokeColor=none;fillColor=none;" parent="1" vertex="1">
          <mxGeometry x="665" y="108" width="30" height="30" as="geometry" />
        </mxCell>
        <mxCell id="CsfTkJ6YKDBlbb89xoRV-77" value="M" style="text;html=1;align=center;verticalAlign=middle;resizable=0;points=[];autosize=1;strokeColor=none;fillColor=none;" parent="1" vertex="1">
          <mxGeometry x="675" y="378" width="30" height="30" as="geometry" />
        </mxCell>
        <mxCell id="55QmagB-R9wa0BkQ8obZ-1" value="" style="endArrow=none;html=1;rounded=0;entryX=0;entryY=0;entryDx=0;entryDy=0;exitX=0.651;exitY=0.162;exitDx=0;exitDy=0;exitPerimeter=0;" edge="1" parent="1" source="CsfTkJ6YKDBlbb89xoRV-29" target="CsfTkJ6YKDBlbb89xoRV-26">
          <mxGeometry width="50" height="50" relative="1" as="geometry">
            <mxPoint x="440" y="360" as="sourcePoint" />
            <mxPoint x="490" y="310" as="targetPoint" />
          </mxGeometry>
        </mxCell>
        <mxCell id="55QmagB-R9wa0BkQ8obZ-2" value="" style="endArrow=none;html=1;rounded=0;entryX=0;entryY=1;entryDx=0;entryDy=0;" edge="1" parent="1" target="CsfTkJ6YKDBlbb89xoRV-29">
          <mxGeometry width="50" height="50" relative="1" as="geometry">
            <mxPoint y="520" as="sourcePoint" />
            <mxPoint x="490" y="310" as="targetPoint" />
          </mxGeometry>
        </mxCell>
      </root>
    </mxGraphModel>
  </diagram>
</mxfile>
